<svg width="16" height="16" viewBox="0 0 16 16" fill="none" xmlns="http://www.w3.org/2000/svg">
<path fill-rule="evenodd" clip-rule="evenodd" d="M13.3327 10.3333H11.9993C11.2627 10.3333 10.666 9.73666 10.666 8.99999V8.99999C10.666 8.26332 11.2627 7.66666 11.9993 7.66666H13.3327C13.7007 7.66666 13.9993 7.96532 13.9993 8.33332V9.66666C13.9993 10.0347 13.7007 10.3333 13.3327 10.3333Z" stroke="#768391" stroke-linecap="round" stroke-linejoin="round"/>
<path d="M13.3333 7.66668V5.66668C13.3333 4.93001 12.7367 4.33334 12 4.33334H3C2.448 4.33334 2 3.88534 2 3.33334V3.33334C2 2.78134 2.448 2.33334 3 2.33334H11.3333" stroke="#768391" stroke-linecap="round" stroke-linejoin="round"/>
<path d="M13.3333 10.3333V12.3333C13.3333 13.07 12.7367 13.6667 12 13.6667H3.33333C2.59667 13.6667 2 13.07 2 12.3333V3.33334" stroke="#768391" stroke-linecap="round" stroke-linejoin="round"/>
</svg>
